<svg xmlns="http://www.w3.org/2000/svg" width="500" height="500" style="width:100%;height:100%;transform:translate3d(0,0,0);content-visibility:visible" viewBox="0 0 500 500"><defs><clipPath id="a"><path d="M0 0h500v500H0z"/></clipPath></defs><g clip-path="url(#a)"><g fill="#FFC638" style="display:block"><path d="M213.686 108.41c-8.632 10.583-10.618 25.629-4.81 38.13a88682.448 88682.448 0 0 1-22.59 13.52c-2.101-3.126-3.79-6.643-4.82-10.24-5.521-17.8 4.648-38.216 22.411-44.4 3.377-1.675 12.905-3.676 9.809 2.99zm106.82 31.33c0 .42-.009.85-.029 1.27a35.843 35.843 0 0 1-.511 4.82 35.068 35.068 0 0 1-1.069 4.43c-.18.59-.371 1.17-.591 1.76-.1.29-.209.58-.329.87-.11.29-.23.58-.35.87-.06.14-.12.29-.18.43-.43.97-.891 1.92-1.391 2.83-.29.52-.579 1.04-.889 1.55-.3.51-.621 1-.951 1.49l-10.589-6.33-12-7.19h-.011c.07-.17.15-.34.23-.51.08-.17.16-.35.23-.53.46-1.09.86-2.18 1.2-3.28.12-.36.23-.73.33-1.09.26-.96.49-1.91.68-2.87.04-.23.081-.45.121-.67.02-.13.049-.25.059-.38.02-.08.03-.16.04-.23.06-.39.121-.78.171-1.17.01-.14.029-.27.039-.4.05-.43.09-.85.12-1.27 0-.04.01-.08.01-.12.03-.43.061-.87.071-1.3.02-.45.03-.9.03-1.35v-.13c0-.35-.01-.69-.02-1.04v-.05c0-.04-.01-.07-.01-.11 0-.23-.01-.46-.03-.69-.01-.26-.031-.53-.051-.79l-.06-.68c0-.04-.01-.07-.01-.1 0-.02 0-.03-.01-.04-.01-.23-.039-.46-.069-.69 0-.03 0-.05-.01-.07l-.03-.26c-.01-.06-.01-.11-.02-.16l-.18-1.21c-.02-.09-.03-.19-.05-.28-.03-.13-.051-.27-.081-.41 0-.02-.01-.05-.01-.08-.05-.24-.099-.49-.149-.74-.03-.15-.061-.29-.101-.44-.07-.33-.15-.65-.23-.98-.07-.29-.15-.58-.24-.87 0-.03-.01-.06-.02-.09-.03-.12-.07-.24-.1-.36-.05-.15-.09-.3-.14-.46-.01-.04-.03-.09-.04-.14 0-.01-.01-.02-.02-.03a24.2 24.2 0 0 0-.289-.91c-.02-.06-.04-.11-.06-.16-.08-.26-.18-.52-.28-.78-.11-.31-.231-.62-.361-.93-.14-.35-.29-.69-.44-1.04-.03-.08-.069-.17-.109-.25a.882.882 0 0 0-.09-.2l-.031-.06a2.39 2.39 0 0 0-.129-.28c-.14-.3-.281-.6-.431-.89-.21-.41-.419-.82-.639-1.22l-.301-.54h-.01c-.16-.29-.33-.58-.5-.86h-.01c-.03-.05-.05-.09-.08-.14-.07-.11-.14-.21-.21-.32-.14-.24-.29-.47-.45-.7-.63-.96-1.31-1.89-2.03-2.78-1.65-2.03.01-5.04 2.55-4.85l.24.03.351.06c.05.01.089.01.129.02.14.03.29.05.43.08.34.06.67.12 1 .2.14.02.281.06.421.09.05 0 .089.01.139.03.09.01.18.03.26.06.18.03.35.08.53.12 1.26.32 2.521.7 3.771 1.17.24.08.479.17.719.27.29.11.581.23.871.35.36.15.719.31 1.079.48.32.15.64.3.95.46.06.02.121.05.181.09.23.11.449.23.679.35.01-.01.011 0 .021.01.17.08.33.17.5.27.01-.01.01 0 .02.01.26.15.52.29.77.44.32.18.65.37.97.57.17.11.34.21.5.32.25.16.49.32.73.49a35.92 35.92 0 0 1 8.57 8.19c.2.26.379.52.569.78.08.11.17.23.24.35.26.37.51.75.76 1.14.29.45.57.91.83 1.38.13.21.251.42.361.63.12.21.239.42.339.63.24.45.47.91.69 1.37.21.46.42.92.62 1.39.1.23.201.47.291.71.09.23.19.47.27.71.18.48.35.96.51 1.44.22.64.409 1.29.579 1.94.1.38.2.76.29 1.15.09.38.17.77.25 1.16.06.29.111.58.161.87.07.35.13.71.17 1.07a30.631 30.631 0 0 1 .32 3.25c.02.23.029.47.039.71.01.44.02.89.02 1.34z"/><path d="m-5.26 24.995-5.45 3.26c-.21-.3-.41-.61-.59-.92-.22-.33-.42-.66-.62-1a9.18 9.18 0 0 1-.39-.68c-.18-.31-.35-.63-.52-.96-.1-.18-.19-.36-.28-.54-.16-.32-.31-.64-.46-.96-.13-.26-.26-.54-.37-.81-.07-.14-.13-.29-.19-.43-1.1-2.6-1.87-5.25-2.33-7.92v-.01c-.21-1.18-.36-2.37-.44-3.55-.31-4.11.101-8.2 1.151-12.09.17-.65.359-1.3.579-1.94 2.53-7.74 7.65-14.6 14.79-19.22.47-.31.96-.61 1.46-.88 1.34-.79 2.74-1.49 4.2-2.11.29-.12.58-.24.87-.35.24-.1.48-.19.73-.27.19-.08.38-.15.58-.22l.9-.3a31.63 31.63 0 0 1 2.28-.65c.72-.18 1.45-.34 2.17-.47.38-.07.76-.14 1.14-.2 1.37-.19 2.501.56 3.051 1.6-19.61 8.99-29.131 31.36-22.261 51.62z" opacity=".5" style="mix-blend-mode:multiply" transform="translate(196.996 131.805)"/><path d="m7.318 24.029-.47 1.06-12-7.19h-.01c.07-.17.15-.34.23-.51.08-.17.16-.35.23-.53.46-1.09.86-2.18 1.2-3.28.12-.36.23-.73.33-1.09.26-.96.49-1.91.68-2.87.04-.23.08-.45.12-.67.02-.13.05-.25.06-.38.02-.08.03-.16.04-.23.06-.39.12-.78.17-1.17.01-.14.03-.27.04-.4.05-.43.09-.85.12-1.27 0-.04.01-.08.01-.12.03-.43.06-.87.07-1.3.02-.45.03-.9.03-1.35v-.13c0-.35-.01-.69-.02-1.04v-.05c0-.04-.01-.07-.01-.11 0-.23-.01-.46-.03-.69-.01-.26-.03-.53-.05-.79l-.06-.68c0-.04-.01-.07-.01-.1 0-.02 0-.03-.01-.04l-.03-.39c-.02-.1-.03-.2-.04-.3 0-.03 0-.05-.01-.07l-.03-.26c-.01-.06-.01-.11-.02-.16l-.18-1.21c-.02-.09-.03-.19-.05-.28-.03-.13-.05-.27-.08-.41 0-.02-.01-.05-.01-.08-.05-.24-.1-.49-.15-.74-.03-.15-.06-.3-.1-.44-.07-.33-.15-.65-.23-.98-.07-.29-.15-.58-.24-.87 0-.03-.01-.06-.02-.09-.03-.12-.07-.24-.1-.36-.05-.15-.09-.3-.14-.46-.01-.04-.03-.09-.04-.14-.1-.31-.2-.63-.31-.94-.02-.06-.04-.11-.06-.16-.09-.26-.18-.52-.28-.78-.11-.31-.23-.62-.36-.93-.14-.35-.29-.69-.44-1.04-.03-.08-.07-.17-.11-.25a.882.882 0 0 0-.09-.2l-.03-.06c-.04-.1-.08-.19-.13-.28-.14-.3-.28-.6-.43-.89-.21-.41-.42-.82-.64-1.22-.1-.18-.21-.36-.31-.54-.16-.29-.33-.58-.51-.86-.03-.05-.05-.09-.08-.14-.07-.11-.14-.21-.21-.32-.14-.23-.29-.47-.45-.7a34.68 34.68 0 0 0-2.03-2.78c-1.65-2.03.01-5.04 2.55-4.85.2.03.4.06.59.09.05.01.09.01.13.02.14.03.29.05.43.08.34.06.67.12 1 .2.14.02.28.06.42.09.05 0 .09.01.14.03.08.01.17.03.25.05l.01.01c13.79 11.51 19.1 31.1 11.76 48.54z" opacity=".5" style="mix-blend-mode:multiply" transform="translate(296.778 128.641)"/></g><path fill="#2CA48D" d="M49.393-55.825c-.531.249-15.56 2.252-16.087 2.508C.408-37.334-24.6-7.766-34.476 28.163c-3.406 12.379 5.282 24.809 18.079 25.818l.418.031c9.728.765 18.67-5.455 21.25-14.867C9.997 21.924 19.848 6.847 33.093-4.357c.699-.592 25.034-15.547 25.752-16.117" style="display:block" transform="translate(112.72 279.988)"/><g fill="#2CA48D" style="display:block"><path d="M161.893 224.425c-.531.249-15.56 2.252-16.087 2.508-32.898 15.983-57.906 45.551-67.782 81.48-3.406 12.379 5.282 24.809 18.079 25.818l.418.031c9.728.765 18.67-5.455 21.25-14.867 4.726-17.221 14.577-32.298 27.822-43.502.699-.592 25.034-15.547 25.752-16.117"/><path d="m147.939 273.889 5.507 109.932c.734 14.735 12.898 26.298 27.643 26.298h.602c15.346 0 27.767-12.491 27.685-27.837l-.102-17.794c-.092-15.357 12.327-27.848 27.684-27.848h26.42c15.193 0 27.552 12.247 27.685 27.44l.163 18.599c.133 15.193 12.492 27.44 27.685 27.44 14.745 0 26.909-11.563 27.643-26.298l5.507-109.932m-.174 6.523c-.14-.925 1.826-14.825 1.784-29.032-.045-14.906-2.099-30.15-2.298-31.103-9.769-46.763-51.252-82.272-101.373-82.272-50.754 0-92.649 36.41-101.727 84.047-.138.726-2.278 18.762-2.192 34.466.066 11.97 2.367 22.584 2.282 23.144"/><path d="M20.375 76.34c-2.82.98-5.85 1.51-9.01 1.51h-.6c-14.75 0-26.91-11.57-27.65-26.3l-5.49-109.72c6.36-6.88 13.04-12.99 18.64-17.43l5.5 127.15c.58 11.57 8.21 21.2 18.61 24.79z" opacity=".5" style="mix-blend-mode:multiply" transform="translate(170.33 332.095)"/><path d="M57.952-63.8c-44.72 16.25-65.13 60.37-69.14 86.88-33.68 15.8-59.34 45.73-69.37 82.24-2.69 9.76 2.15 19.56 10.59 23.75-1.38.69-2.84 1.23-4.36 1.59-.03.01-.06.02-.09.02-.36.09-.73.17-1.1.23 0 0-.01.01-.02 0-.34.07-.68.12-1.03.16-.11.02-.23.03-.36.04-.31.04-.62.06-.94.08-.02.01-.04.01-.06 0-.39.03-.78.04-1.17.04-.53 0-1.07-.02-1.61-.06l-.42-.03c-12.8-1.01-21.49-13.44-18.08-25.82 10.03-36.51 35.69-66.44 69.37-82.24 4.01-26.52 18.14-49.85 38.42-65.8-.21-.3 22.44-13.86 22.6-13.52 8.39-3.66 17.37-6.24 26.77-7.56z" opacity=".5" style="mix-blend-mode:multiply" transform="translate(177.954 203.78)"/></g><path fill="none" stroke="#121330" stroke-linecap="round" stroke-linejoin="round" stroke-width="7" d="M34.893-54.075C1.213-38.28-24.442-8.342-34.476 28.163c-3.406 12.379 5.282 24.809 18.079 25.818l.418.031c9.728.765 18.67-5.455 21.25-14.867C10.247 21.015 20.904 5.26 35.22-6.099" style="display:block" transform="translate(112.72 279.988)"/><g fill="none" stroke="#121330" stroke-linecap="round" stroke-linejoin="round" stroke-width="7" style="display:block"><path d="M186.034 160.112a36.642 36.642 0 0 1-3.415-6.302c-7.821-18.538.866-39.9 19.404-47.721a36.255 36.255 0 0 1 16.529-2.784c-12.104 9.962-16.784 27.053-10.38 42.246.153.357.306.703.459 1.04m82.737 0c.153-.337.306-.683.459-1.04 6.404-15.193 1.724-32.284-10.38-42.246a36.255 36.255 0 0 1 16.529 2.784c18.538 7.821 27.226 29.183 19.405 47.721a36.646 36.646 0 0 1-3.416 6.302"/><path d="m147.939 273.889 5.507 109.932c.734 14.735 12.898 26.298 27.643 26.298h.602c15.346 0 27.767-12.491 27.685-27.837l-.102-17.794c-.092-15.357 12.327-27.848 27.684-27.848h26.42c15.193 0 27.552 12.247 27.685 27.44l.163 18.599c.133 15.193 12.492 27.44 27.685 27.44 14.745 0 26.909-11.563 27.643-26.298l5.507-109.932m.326-47.977c-7.495-49.516-50.271-87.907-102.387-87.907s-94.892 38.391-102.387 87.907"/></g><g style="display:block"><path fill="#EBE6EE" d="M187.119 218.109c0 14.968 12.134 27.102 27.102 27.102s27.103-12.134 27.103-27.102-12.135-27.103-27.103-27.103c-14.968 0-27.102 12.135-27.102 27.103zm80.695 6.608c0 11.318 9.175 20.494 20.494 20.494 11.319 0 20.494-9.176 20.494-20.494s-9.175-20.494-20.494-20.494c-11.319 0-20.494 9.176-20.494 20.494z"/><path fill="none" stroke="#121330" stroke-linecap="round" stroke-linejoin="round" stroke-width="7" d="M187.119 218.109c0 14.968 12.134 27.102 27.102 27.102s27.103-12.134 27.103-27.102-12.135-27.103-27.103-27.103c-14.968 0-27.102 12.135-27.102 27.103zm80.695 6.608c0 11.318 9.175 20.494 20.494 20.494 11.319 0 20.494-9.176 20.494-20.494s-9.175-20.494-20.494-20.494c-11.319 0-20.494 9.176-20.494 20.494zm-34.894 45.01c0 9.436 7.644 17.08 17.08 17.08 9.436 0 17.079-7.644 17.079-17.08m-52.858-51.618s0 0 0 0m74.087 6.608s0 0 0 0"/></g><path fill="#2CA48D" d="M338.685 269.764c.558.443 14.487 5.018 15.034 5.474 13.481 11.243 23.508 26.472 28.29 43.895 2.58 9.412 11.522 15.632 21.25 14.867l.418-.031c12.797-1.009 21.485-13.439 18.079-25.818-9.84-35.801-34.706-65.287-67.431-81.309-.643-.315-12.914-2.75-13.563-3.054" style="display:block"/><path fill="none" stroke="#121330" stroke-linecap="round" stroke-linejoin="round" stroke-width="7" d="M-35.22-6.099C-20.904 5.26-10.247 21.015-5.271 39.145c2.58 9.412 11.522 15.632 21.25 14.867l.418-.031c12.797-1.009 21.485-13.439 18.079-25.818C24.442-8.342-1.213-38.28-34.893-54.075" style="display:block" transform="translate(387.28 279.988)"/><path class="com" style="display:none"/></g></svg>