<svg xmlns="http://www.w3.org/2000/svg" width="500" height="500" style="width:100%;height:100%;transform:translate3d(0,0,0);content-visibility:visible" viewBox="0 0 500 500"><defs><filter id="a" width="100%" height="100%" x="0%" y="0%" filterUnits="objectBoundingBox"><feComponentTransfer in="SourceGraphic"><feFuncA tableValues="1.0 0.0" type="table"/></feComponentTransfer></filter><filter id="c" width="100%" height="100%" x="0%" y="0%" filterUnits="objectBoundingBox"><feComponentTransfer in="SourceGraphic"><feFuncA tableValues="1.0 0.0" type="table"/></feComponentTransfer></filter><filter id="e" width="100%" height="100%" x="0%" y="0%" filterUnits="objectBoundingBox"><feComponentTransfer in="SourceGraphic"><feFuncA tableValues="1.0 0.0" type="table"/></feComponentTransfer></filter><path id="b" fill="#FFC738" d="m27.662 2.73-11.93 16.415A3.984 3.984 0 0 0 13.825 21L-1.638 37.329c-1.437 2.952-5.629 2.952-7.052 0L-18.917 16.25a1.131 1.131 0 0 0-.13-.209 3.55 3.55 0 0 0-1.515-1.489.943.943 0 0 0-.261-.157l-20.479-9.299c-2.965-1.345-3.056-5.485-.274-6.987.092-.052.183-.105.274-.144l17.729-11.299a3.925 3.925 0 0 0 1.906-1.854L-8.69-34.267c1.423-2.952 10.292 4.597 11.392 6.857l7.82 16.14c.31.63.83 1.13 1.46 1.42l15.68 7.12c2.35 1.06 2.35 4.4 0 5.46z" style="display:block" transform="rotate(180 198.459 57.765)"/><path id="f" fill="#FFC738" d="M52.387.729 29.031 22.463a3.743 3.743 0 0 0-1.841 1.791L6.57 42.764l-2.875 5.938c-1.374 2.837-5.421 2.837-6.808 0l-11.876-33.253c-.04-.08-.08-.16-.12-.23-.26-.44-.63-.8-1.08-1.05l-.03-.02c-.07-.04-.15-.08-.23-.12l-24.87-11.29c-2.29-1.04-2.35-4.22-.19-5.36.06-.05.12-.08.19-.11l12.37-25.171a3.766 3.766 0 0 0 1.841-1.803L-3.113-54.14c1.387-2.849 5.434-2.849 6.808 0L19.19-22.205a3.766 3.766 0 0 0 1.841 1.803L52.387-6.167c2.963 1.349 2.963 5.547 0 6.896z" style="display:block" transform="translate(307.598 219.99)"/><path id="d" fill="#FFC738" d="m407.194 341.599-23.566 17.52c-1.088.408-1.986 1.112-2.504 1.999l-13.063 8.586v.014l-3.953 6.615c-1.899 3.167-8.448-4.845-9.538-7.095l-7.83-16.14a.218.218 0 0 0-.05-.08c-.28-.54-.71-.98-1.25-1.24a.47.47 0 0 0-.16-.1l-15.68-7.12c-2.27-1.04-2.34-4.2-.21-5.35.07-.04.14-.08.21-.11l9.15-15.204c1.105-.408 1.986-1.126 2.521-2.013l16.766-19.715c1.882-3.167 7.422-3.167 9.321 0l10.266 19.715c.518.887 1.416 1.605 2.504 2.013l27.066 10.02c4.056 1.492 4.056 6.179 0 7.685z" opacity="1"/><mask id="j" mask-type="alpha"><g filter="url(#a)"><path fill="#fff" d="M0 0h500v500H0z" opacity="0"/><use xmlns:ns1="http://www.w3.org/1999/xlink" ns1:href="#b"/></g></mask><mask id="i" mask-type="alpha"><g filter="url(#c)"><path fill="#fff" d="M0 0h500v500H0z" opacity="0"/><use xmlns:ns2="http://www.w3.org/1999/xlink" ns2:href="#d"/></g></mask><mask id="h" mask-type="alpha"><g filter="url(#e)"><path fill="#fff" d="M0 0h500v500H0z" opacity="0"/><use xmlns:ns3="http://www.w3.org/1999/xlink" ns3:href="#f"/></g></mask><clipPath id="g"><path d="M0 0h500v500H0z"/></clipPath></defs><g clip-path="url(#g)"><g fill="#EBE6EE" style="display:block"><path d="M282.312 402.893c-14.54 4.67-30.06 7.15-46.18 7.04-32.16-.21-61.92-10.84-86.1-28.65a149.546 149.546 0 0 1-19.83-17.53c-25.62-27.03-41.16-63.66-40.54-103.63.2-12.86 2.05-25.31 5.35-37.17v-.02a147.88 147.88 0 0 1 7.5-20.8s0-.02.01-.02c20.74-46.18 64.56-79.76 116.77-86.05 5.18-.63 10.45-.98 15.78-1.06.68-.01 1.37-.01 2.05-.01 15.77 0 30.96 2.48 45.21 7.06 2.61.84 2.79 4.47.28 5.59-45.22 20.11-78.46 62.3-86 112.9a148.28 148.28 0 0 0-1.62 21.93c0 21.98 4.81 42.85 13.44 61.59 14.97 32.52 41.43 58.67 74.18 73.23 2.52 1.12 2.33 4.76-.3 5.6z"/><path d="M24.53 41.48c-2.24.37-4.53.56-6.87.56-23.3 0-42.19-18.88-42.19-42.18 0-21.62 16.27-39.45 37.24-41.9a148.28 148.28 0 0 0-1.62 21.93c0 21.98 4.81 42.85 13.44 61.59z" opacity=".5" style="mix-blend-mode:multiply" transform="translate(183.902 282.583)"/><path d="M17.975.04c0 9.3-7.06 16.95-16.11 17.89A149.546 149.546 0 0 1-17.965.4c-.01-.12-.01-.24-.01-.36 0-9.92 8.05-17.97 17.97-17.97 9.93 0 17.98 8.05 17.98 17.97z" opacity=".5" style="mix-blend-mode:multiply" transform="translate(148.167 363.353)"/><path d="M-16.166-17.535s0-.02.01-.02c4.23-3.87 9.85-6.23 16.04-6.23 13.14 0 23.79 10.65 23.79 23.78 0 13.14-10.65 23.79-23.79 23.79-12.01 0-21.95-8.92-23.55-20.5-.01-.01-.01-.01 0-.02l7.5-20.8z" opacity=".5" style="mix-blend-mode:multiply" transform="translate(118.678 219.668)"/><path d="M-4.815 0a4.815 4.815 0 1 0 9.63 0 4.815 4.815 0 0 0-9.63 0z" opacity=".5" style="mix-blend-mode:multiply" transform="translate(212.973 378.426)"/><path d="M-4.815 0a4.815 4.815 0 1 0 9.63 0 4.815 4.815 0 0 0-9.63 0z" opacity=".5" style="mix-blend-mode:multiply" transform="translate(175.255 195.88)"/><path d="M-4.815 0a4.815 4.815 0 1 0 9.63 0 4.815 4.815 0 0 0-9.63 0z" opacity=".5" style="mix-blend-mode:multiply" transform="translate(194.516 155.476)"/><path d="M-8.189 0A8.189 8.189 0 0 0 0 8.189 8.189 8.189 0 0 0 8.189 0 8.189 8.189 0 0 0 0-8.189 8.189 8.189 0 0 0-8.189 0z" opacity=".5" style="mix-blend-mode:multiply" transform="translate(126.755 282.441)"/></g><path fill="none" stroke="#121330" stroke-linecap="round" stroke-linejoin="round" stroke-width="7" d="M100.075 137.795c-16.357 6.252-34.121 9.678-52.673 9.678-81.447 0-147.477-66.022-147.477-147.469 0-81.447 66.03-147.477 147.477-147.477 18.552 0 36.316 3.427 52.673 9.679C44.64-116.59 5.27-62.891 5.27.004c0 62.895 39.37 116.587 94.805 137.791z" style="display:block" transform="translate(189.955 262.859)"/><path fill="#FFC638" d="m41.321 2.739-24.87 11.29c-.64.29-1.16.79-1.46 1.42l-10.01 20.63-2.28 4.71c-1.09 2.25-4.3 2.25-5.4 0l-12.29-25.34c-.04-.08-.08-.16-.12-.23-.26-.44-.63-.8-1.08-1.05l-.03-.02c-.07-.04-.15-.08-.23-.12l-24.87-11.29c-2.29-1.04-2.35-4.22-.19-5.36.06-.05.12-.08.19-.11l24.87-11.29c.64-.29 1.16-.8 1.46-1.43l12.29-25.33c1.1-2.26 4.31-2.26 5.4 0l12.29 25.33c.3.63.82 1.14 1.46 1.43l24.87 11.29c2.35 1.07 2.35 4.4 0 5.47z" style="display:block" transform="translate(297.598 229.99)"/><g mask="url(#h)" opacity=".5" style="mix-blend-mode:multiply;display:block"><path fill="#FFC638" d="m338.919 232.729-24.87 11.29c-.64.29-1.16.79-1.46 1.42l-10.01 20.63-2.28 4.71c-1.09 2.25-4.3 2.25-5.4 0l-12.29-25.34c-.04-.08-.08-.16-.12-.23-.26-.44-.63-.8-1.08-1.05l-.03-.02c-.07-.04-.15-.08-.23-.12l-24.87-11.29c-2.29-1.04-2.35-4.22-.19-5.36.06-.05.12-.08.19-.11l24.87-11.29c.64-.29 1.16-.8 1.46-1.43l12.29-25.33c1.1-2.26 4.31-2.26 5.4 0l12.29 25.33c.3.63.82 1.14 1.46 1.43l24.87 11.29c2.35 1.07 2.35 4.4 0 5.47z" opacity="1"/></g><path fill="none" stroke="#121330" stroke-linecap="round" stroke-linejoin="round" stroke-width="7" d="M15.461-14.475 47.336 0 15.461 14.475 0 46.35l-15.461-31.875L-47.336 0l31.875-14.475L0-46.35l15.461 31.875z" style="display:block" transform="translate(297.336 229.634)"/><path fill="#FFC638" d="m27.662 2.735-15.68 7.12c-.63.29-1.15.79-1.45 1.42l-5.54 11.43v.01l-2.29 4.7c-1.1 2.25-4.31 2.25-5.4 0l-7.83-16.14a.218.218 0 0 0-.05-.08c-.28-.54-.71-.98-1.25-1.24a.47.47 0 0 0-.16-.1l-15.68-7.12c-2.27-1.04-2.34-4.2-.21-5.35.07-.04.14-.08.21-.11l15.68-7.12c.64-.29 1.15-.8 1.46-1.43l7.83-16.14c1.09-2.25 4.3-2.25 5.4 0l7.83 16.14c.3.63.82 1.14 1.45 1.43l15.68 7.12c2.35 1.06 2.35 4.39 0 5.46z" style="display:block" transform="translate(348.768 350.323)"/><g mask="url(#i)" opacity=".5" style="mix-blend-mode:multiply;display:block"><path fill="#FFC638" d="m376.43 353.058-15.68 7.12c-.63.29-1.15.79-1.45 1.42l-5.54 11.43v.01l-2.29 4.7c-1.1 2.25-4.31 2.25-5.4 0l-7.83-16.14a.218.218 0 0 0-.05-.08c-.28-.54-.71-.98-1.25-1.24a.47.47 0 0 0-.16-.1l-15.68-7.12c-2.27-1.04-2.34-4.2-.21-5.35.07-.04.14-.08.21-.11l15.68-7.12c.64-.29 1.15-.8 1.46-1.43l7.83-16.14c1.09-2.25 4.3-2.25 5.4 0l7.83 16.14c.3.63.82 1.14 1.45 1.43l15.68 7.12c2.35 1.06 2.35 4.39 0 5.46z" opacity="1"/></g><path fill="none" stroke="#121330" stroke-linecap="round" stroke-linejoin="round" stroke-width="7" d="M11-10.299 33.68 0 11 10.299 0 32.978l-11-22.679L-33.68 0-11-10.299 0-32.978l11 22.679z" style="display:block" transform="translate(348.433 349.89)"/><path fill="#FFC638" d="m27.662 2.73-15.68 7.12c-.63.29-1.15.79-1.46 1.42l-7.82 16.14c-1.1 2.26-4.31 2.26-5.4 0l-7.83-16.14a.864.864 0 0 0-.1-.16c-.26-.49-.67-.89-1.16-1.14a.708.708 0 0 0-.2-.12l-15.68-7.12c-2.27-1.03-2.34-4.2-.21-5.35.07-.04.14-.08.21-.11l15.68-7.12c.64-.29 1.15-.79 1.46-1.42l7.83-16.14c1.09-2.26 4.3-2.26 5.4 0l7.82 16.14c.31.63.83 1.13 1.46 1.42l15.68 7.12c2.35 1.06 2.35 4.4 0 5.46z" style="display:block" transform="rotate(180 194.709 61.515)"/><g mask="url(#j)" style="mix-blend-mode:multiply;display:block"><path fill="#FFC638" d="m361.756 120.301 15.68-7.12a3.05 3.05 0 0 0 1.46-1.42l7.82-16.14c1.1-2.26 4.31-2.26 5.4 0l7.83 16.14c.03.06.06.11.1.16.26.49.67.89 1.16 1.14.07.06.13.09.2.12l15.68 7.12c2.27 1.03 2.34 4.2.21 5.35-.07.04-.14.08-.21.11l-15.68 7.12c-.64.29-1.15.79-1.46 1.42l-7.83 16.14c-1.09 2.26-4.3 2.26-5.4 0l-7.82-16.14a3.05 3.05 0 0 0-1.46-1.42l-15.68-7.12c-2.35-1.06-2.35-4.4 0-5.46z" opacity=".5"/></g><path fill="none" stroke="#121330" stroke-linecap="round" stroke-linejoin="round" stroke-width="7" d="M11-10.299 33.68 0 11 10.299 0 32.978l-11-22.679L-33.68 0-11-10.299 0-32.978l11 22.679z" style="display:block" transform="translate(389.433 122.89)"/><path class="com" style="display:none"/></g></svg>