<svg xmlns="http://www.w3.org/2000/svg" width="500" height="500" style="width:100%;height:100%;transform:translate3d(0,0,0);content-visibility:visible" viewBox="0 0 500 500"><defs><clipPath id="a"><path d="M0 0h500v500H0z"/></clipPath></defs><g clip-path="url(#a)"><g style="display:block"><path fill="#FFC638" d="M250.415 85.944h-.001a2.003 2.003 0 0 0-2 2v57.291a2 2 0 0 0 2.375 1.965c4.971-.951 9.326-1.475 12.264-1.475 12.614 0 22.876 10.263 22.876 22.877 0 12.614-10.262 22.876-22.876 22.876-2.949 0-7.305-.522-12.264-1.47a2 2 0 0 0-2.375 1.965v57.291a2 2 0 0 0 2 2h54.78c-.723 4.233-1.114 7.952-1.114 10.64 0 14.819 12.056 26.876 26.876 26.876 14.82 0 26.877-12.057 26.877-26.876 0-2.699-.391-6.417-1.112-10.64h54.897a2 2 0 0 0 2-2c0-89.997-73.213-163.261-163.203-163.32z"/><path fill="none" stroke="#0A0B1F" stroke-linecap="round" stroke-linejoin="round" stroke-width="7" d="M250.415 85.944h-.001a2.003 2.003 0 0 0-2 2v57.291a2 2 0 0 0 2.375 1.965c4.971-.951 9.326-1.475 12.264-1.475 12.614 0 22.876 10.263 22.876 22.877 0 12.614-10.262 22.876-22.876 22.876-2.949 0-7.305-.522-12.264-1.47a2 2 0 0 0-2.375 1.965v57.291a2 2 0 0 0 2 2h54.78c-.723 4.233-1.114 7.952-1.114 10.64 0 14.819 12.056 26.876 26.876 26.876 14.82 0 26.877-12.057 26.877-26.876 0-2.699-.391-6.417-1.112-10.64h54.897a2 2 0 0 0 2-2c0-89.997-73.213-163.261-163.203-163.32z"/></g><g style="display:block"><path fill="#EBE6EE" d="M414.05 251.51c-.81 89.92-73.94 162.55-164.05 162.55-90.61 0-164.06-73.45-164.06-164.06 0-90.08 72.59-163.2 162.47-164.05v59.29a2.001 2.001 0 0 0 2.38 1.96c4.97-.95 9.33-1.47 12.26-1.47 12.62 0 22.88 10.26 22.88 22.87 0 12.62-10.26 22.88-22.88 22.88-2.95 0-7.3-.52-12.26-1.47a2.001 2.001 0 0 0-2.38 1.96v57.29a2 2 0 0 0 2 2h54.78c-.72 4.24-1.11 7.96-1.11 10.64 0 14.82 12.06 26.88 26.88 26.88 14.82 0 26.87-12.06 26.87-26.88 0-2.7-.39-6.41-1.11-10.64h51.88l5.45.25z"/><path fill="#4AB3FC" d="M236.946 308.521c2.951 0 7.306.523 12.264 1.471a2 2 0 0 0 2.376-1.965v-57.292a2 2 0 0 0-2-2h-54.781c.723-4.232 1.115-7.95 1.115-10.639 0-14.819-12.057-26.876-26.877-26.876-14.82 0-26.876 12.057-26.876 26.876 0 2.699.39 6.416 1.11 10.639H88.38a2 2 0 0 0-2 2c0 89.996 73.213 163.261 163.204 163.321h.002a2.002 2.002 0 0 0 2-2v-57.292a2 2 0 0 0-2.376-1.964c-4.971.951-9.326 1.474-12.264 1.474-12.614 0-22.877-10.263-22.877-22.877 0-12.614 10.263-22.876 22.877-22.876z"/><path fill="#EBE6EE" d="M-21.995 60.76c0 4.77.2 9.49.61 14.15h-28.44c.44-67.27 41.38-124.93 99.65-149.82-43.35 29.52-71.82 79.27-71.82 135.67z" opacity=".5" style="mix-blend-mode:multiply" transform="translate(135.775 173.99)"/><path fill="#4AB3FC" d="M82.825 65.24v17.33c-.53.01-1.06.01-1.59.01-90.61 0-164.06-73.45-164.06-164.06 0-.37 0-.73.01-1.1h28.44c6.42 75.24 63.63 135.99 137.2 147.82z" opacity=".5" style="mix-blend-mode:multiply" transform="translate(168.765 331.48)"/><path fill="#EBE6EE" d="M45.33-14.185c-25.88 17.62-57.07 28.05-90.66 28.37v-17.33c8.55 1.38 17.32 2.09 26.25 2.09 22.86 0 44.63-4.68 64.41-13.13z" opacity=".5" style="mix-blend-mode:multiply" transform="translate(296.92 399.865)"/><path fill="#4AB3FC" d="M414.05 251.51h-5.45v-.25l5.45.25zm-177.104 57.011c2.951 0 7.306.523 12.264 1.471a2 2 0 0 0 2.376-1.965v-57.292a2 2 0 0 0-2-2h-54.781c.723-4.232 1.115-7.95 1.115-10.639 0-14.819-12.057-26.876-26.877-26.876-14.82 0-26.876 12.057-26.876 26.876 0 2.699.39 6.416 1.11 10.639H88.38a2 2 0 0 0-2 2c0 89.996 73.213 163.261 163.204 163.321h.002a2.002 2.002 0 0 0 2-2v-57.292a2 2 0 0 0-2.376-1.964c-4.971.951-9.326 1.474-12.264 1.474-12.614 0-22.877-10.263-22.877-22.877 0-12.614 10.263-22.876 22.877-22.876z"/><path fill="#EBE6EE" d="M-21.995 60.76c0 4.77.2 9.49.61 14.15h-28.44c.44-67.27 41.38-124.93 99.65-149.82-43.35 29.52-71.82 79.27-71.82 135.67z" opacity=".5" style="mix-blend-mode:multiply" transform="translate(135.775 173.99)"/><path fill="#4AB3FC" d="M82.825 65.24v17.33c-.53.01-1.06.01-1.59.01-90.61 0-164.06-73.45-164.06-164.06 0-.37 0-.73.01-1.1h28.44c6.42 75.24 63.63 135.99 137.2 147.82z" opacity=".5" style="mix-blend-mode:multiply" transform="translate(168.765 331.48)"/><path fill="none" stroke="#0A0B1F" stroke-linecap="round" stroke-linejoin="round" stroke-width="7" d="M414.05 251.51c-.81 89.92-73.94 162.55-164.05 162.55-90.61 0-164.06-73.45-164.06-164.06 0-90.08 72.59-163.2 162.47-164.05v59.29a2.001 2.001 0 0 0 2.38 1.96c4.97-.95 9.33-1.47 12.26-1.47 12.62 0 22.88 10.26 22.88 22.87 0 12.62-10.26 22.88-22.88 22.88-2.95 0-7.3-.52-12.26-1.47a2.001 2.001 0 0 0-2.38 1.96v57.29a2 2 0 0 0 2 2h54.78c-.72 4.24-1.11 7.96-1.11 10.64 0 14.82 12.06 26.88 26.88 26.88 14.82 0 26.87-12.06 26.87-26.88 0-2.7-.39-6.41-1.11-10.64h51.88l5.45.25zm-177.104 57.011c2.951 0 7.307.523 12.265 1.471a2 2 0 0 0 2.375-1.965v-57.292a2 2 0 0 0-2-2h-54.781c.723-4.232 1.115-7.95 1.115-10.639 0-14.819-12.056-26.876-26.876-26.876-14.82 0-26.877 12.057-26.877 26.876 0 2.699.391 6.416 1.111 10.639H88.381a2 2 0 0 0-2 2c0 89.996 73.213 163.262 163.204 163.322h.001a2.003 2.003 0 0 0 2-2v-57.292a2 2 0 0 0-2.375-1.965c-4.971.951-9.327 1.474-12.265 1.474-12.614 0-22.876-10.263-22.876-22.877 0-12.614 10.262-22.876 22.876-22.876zM414.05 251.51h-5.45v-.25l5.45.25zm-177.104 57.011c2.951 0 7.307.523 12.265 1.471a2 2 0 0 0 2.375-1.965v-57.292a2 2 0 0 0-2-2h-54.781c.723-4.232 1.115-7.95 1.115-10.639 0-14.819-12.056-26.876-26.876-26.876-14.82 0-26.877 12.057-26.877 26.876 0 2.699.391 6.416 1.111 10.639H88.381a2 2 0 0 0-2 2c0 89.996 73.213 163.262 163.204 163.322h.001a2.003 2.003 0 0 0 2-2v-57.292a2 2 0 0 0-2.375-1.965c-4.971.951-9.327 1.474-12.265 1.474-12.614 0-22.876-10.263-22.876-22.877 0-12.614 10.262-22.876 22.876-22.876zm14.644 88.199V383.1"/></g><g class="com" style="display:none"><path/><path/><path/><path/><path/><path/><path/><path/><path/><path/><path/><path/></g></g></svg>