<svg xmlns="http://www.w3.org/2000/svg" width="500" height="500" style="width:100%;height:100%;transform:translate3d(0,0,0);content-visibility:visible" viewBox="0 0 500 500"><defs><clipPath id="b"><path d="M0 0h500v500H0z"/></clipPath><clipPath id="d"><path d="M0 0h500v500H0z"/></clipPath><mask id="c" mask-type="alpha"><use xmlns:ns1="http://www.w3.org/1999/xlink" ns1:href="#a"/></mask><g id="a" fill="#FFC738" style="display:block"><path d="M151.1 405.25z"/><path d="M0-56.5c31.182 0 56.5 25.318 56.5 56.5S31.182 56.5 0 56.5-56.5 31.182-56.5 0-31.182-56.5 0-56.5z" style="mix-blend-mode:multiply" transform="matrix(0 0 0 0 151.1 405.25)"/></g></defs><g clip-path="url(#b)"><path fill="#EBE6EE" d="m148.032-35.269-108.475-.039h-.001a3.767 3.767 0 0 1-3.562-2.557L1.6-143.035c-.467-1.379-1.656-1.873-2.615-1.873h-.003c-.96.001-2.15.497-2.616 1.884L-37.519-38.525a3.763 3.763 0 0 1-3.569 2.57l-106.944.015c-1.482.001-2.329.989-2.628 1.914-.299.925-.19 2.223 1.012 3.09l86.953 62.703a3.752 3.752 0 0 1 1.381 4.206L-94.268 139.59c-.452 1.405.222 2.514 1.003 3.083.78.569 2.041.872 3.239.011l86.692-67a3.79 3.79 0 0 1 2.215-.716c.762 0 1.521.231 2.171.692l87.291 68.731c1.193.846 2.46.526 3.24-.059.779-.585 1.438-1.711.951-3.115L59.862 37.063c-.54-1.551.023-3.319 1.375-4.282l88.398-63.037c1.211-.863 1.325-2.163 1.028-3.092-.297-.928-1.144-1.921-2.631-1.921z" style="display:block" transform="translate(251 251.751) scale(1.07937)"/><g fill="#EBE6EE" opacity=".5" style="mix-blend-mode:multiply;display:block"><path d="m89.551 218.36 93.851 67.676a4.023 4.023 0 0 1 1.565 2.3c.184.723.162 1.5-.075 2.245l-35.566 111.844c-.496 1.51.238 2.709 1.08 3.324l100.662-141.57L88.45 215.025c-.313 1.004-.205 2.396 1.101 3.335zM248.37 95.798c-.518.324-.96.831-1.22 1.576l-36.568 112.794a4.035 4.035 0 0 1-1.706 2.148l42.193 51.863-1.09-168.834c-.519 0-1.101.14-1.609.453z" opacity="1"/><path d="m252.213 333.42 94.218 74.186c1.284.906 2.655.56 3.497-.065l-98.86-143.362-1.133 68.486c.799.01 1.598.26 2.278.756zm161.484-117.661-162.628 48.42 64.643 24.912a4.063 4.063 0 0 1 1.457-1.954l95.416-68.043c1.306-.928 1.425-2.331 1.112-3.335z" opacity="1"/></g><g mask="url(#c)" style="display:block"><g clip-path="url(#d)" transform="translate(.001 .001)"><path fill="#FFC638" d="m148.032-35.269-108.475-.039h-.001a3.767 3.767 0 0 1-3.562-2.557L1.6-143.035c-.467-1.379-1.656-1.873-2.615-1.873h-.003c-.96.001-2.15.497-2.616 1.884L-37.519-38.525a3.763 3.763 0 0 1-3.569 2.57l-106.944.015c-1.482.001-2.329.989-2.628 1.914-.299.925-.19 2.223 1.012 3.09l86.953 62.703a3.752 3.752 0 0 1 1.381 4.206L-94.268 139.59c-.452 1.405.222 2.514 1.003 3.083.78.569 2.041.872 3.239.011l86.692-67a3.79 3.79 0 0 1 2.215-.716c.762 0 1.521.231 2.171.692l87.291 68.731c1.193.846 2.46.526 3.24-.059.779-.585 1.438-1.711.951-3.115L59.862 37.063c-.54-1.551.023-3.319 1.375-4.282l88.398-63.037c1.211-.863 1.325-2.163 1.028-3.092-.297-.928-1.144-1.921-2.631-1.921z" style="display:block" transform="translate(251 251.752) scale(1.07937)"/><g opacity=".5" style="mix-blend-mode:multiply;display:block"><path fill="#FFC638" d="m89.551 218.361 93.851 67.676a4.023 4.023 0 0 1 1.565 2.3c.184.723.162 1.5-.075 2.245l-35.566 111.844c-.496 1.51.238 2.709 1.08 3.324l100.662-141.57L88.45 215.026c-.313 1.004-.205 2.396 1.101 3.335zM248.37 95.799c-.518.324-.96.831-1.22 1.576l-36.568 112.794a4.035 4.035 0 0 1-1.706 2.148l42.193 51.863-1.09-168.834c-.519 0-1.101.14-1.609.453zm3.843 237.623 94.218 74.185c1.284.906 2.655.56 3.497-.065l-98.86-143.362-1.133 68.486c.799.01 1.598.26 2.278.756zM413.697 215.76l-162.628 48.42 64.643 24.912a4.063 4.063 0 0 1 1.457-1.954l95.416-68.043c1.306-.928 1.425-2.331 1.112-3.335z" opacity="1"/></g></g></g><path fill="none" stroke="#121330" stroke-linecap="round" stroke-linejoin="round" stroke-width="1.89" d="m1.192-43.554 10.248 31.54c.168.516.649.866 1.192.866h33.163c1.214 0 1.719 1.554.737 2.268L33.292.74l-13.59 9.873a1.253 1.253 0 0 0-.455 1.401l3.872 11.915 6.376 19.625c.375 1.155-.947 2.115-1.929 1.401l-12.537-9.108L.737 25.462a1.255 1.255 0 0 0-1.474 0l-12.77 9.279-14.059 10.214c-.982.714-2.304-.246-1.929-1.401l5.831-17.945 4.417-13.595a1.253 1.253 0 0 0-.455-1.401L-33.597.518-46.532-8.88c-.982-.714-.477-2.268.737-2.268h33.163c.543 0 1.024-.35 1.192-.866l10.248-31.54c.375-1.155 2.009-1.155 2.384 0z" style="display:block" transform="matrix(3.45 0 0 3.45 250 249.3)"/><g class="com" style="display:none"><path/><path/><path/><path/><path/><path/><path/><path/><path/><path/><path/><path/></g></g></svg>